<svg width="144" height="28" viewBox="0 0 144 28" fill="none" xmlns="http://www.w3.org/2000/svg">
<g clip-path="url(#clip0_8_503)">
<path d="M87.3809 8.109L89.5299 5.961H101.3L103.449 8.109V12.587H87.3809V8.109ZM87.0609 0L81.4209 5.64V27.99H87.3809V18.547H103.451V27.99H109.411V5.64L103.77 0H87.0609Z" fill="white"/>
<path d="M45.3601 0V27.99H51.3201V5.961H57.5001V22.483H63.4611V5.961H69.6381V27.99H75.6001V0H45.3601Z" fill="white"/>
<path d="M40.541 11.015H29.073V16.975H40.541V11.015Z" fill="white"/>
<path d="M0 0V27.99H27.99V22.029H5.961V16.975H22.482V11.015H5.961V5.961H27.99V0H0Z" fill="#0068B3"/>
<path d="M135.234 0L124.219 11.015H121.319V0H115.358V27.99H121.319V16.975H124.219L135.234 27.99H143.663L129.668 13.995L143.663 0H135.234Z" fill="white"/>
</g>
<defs>
<clipPath id="clip0_8_503">
<rect width="143.663" height="27.99" fill="white"/>
</clipPath>
</defs>
</svg>
